<?xml version="1.0" standalone="no"?>
<!DOCTYPE svg PUBLIC "-//W3C//DTD SVG 20010904//EN"
 "http://www.w3.org/TR/2001/REC-SVG-20010904/DTD/svg10.dtd">
<svg version="1.0" xmlns="http://www.w3.org/2000/svg"
 width="900.000000pt" height="540.000000pt" viewBox="0 0 900.000000 540.000000"
 preserveAspectRatio="xMidYMid meet">
<metadata>
Created by potrace 1.10, written by Peter Selinger 2001-2011
</metadata>
<g transform="translate(0.000000,540.000000) scale(0.100000,-0.100000)"
fill="#000000" stroke="none">
<path d="M4225 4685 c-33 -8 -78 -14 -100 -14 -22 -1 -60 -7 -85 -15 -54 -17
-124 -35 -165 -43 -16 -3 -39 -12 -50 -19 -11 -8 -28 -14 -38 -14 -10 0 -31
-6 -45 -13 -15 -8 -45 -22 -67 -32 -22 -9 -47 -21 -55 -26 -8 -5 -21 -11 -27
-14 -33 -13 -40 -16 -68 -35 -16 -11 -39 -24 -50 -30 -11 -6 -33 -19 -50 -30
-16 -11 -40 -25 -52 -31 -13 -7 -23 -16 -23 -21 0 -4 -7 -8 -15 -8 -8 0 -15
-4 -15 -10 0 -5 -13 -16 -28 -24 -16 -8 -46 -30 -67 -48 -46 -39 -259 -251
-295 -293 -41 -48 -120 -153 -120 -160 0 -3 -12 -23 -27 -42 -27 -35 -58 -90
-103 -183 -12 -25 -26 -52 -31 -60 -5 -8 -12 -22 -15 -30 -3 -8 -12 -28 -20
-43 -7 -16 -14 -37 -14 -47 0 -10 -6 -31 -14 -47 -22 -45 -38 -95 -45 -143 -4
-25 -13 -55 -19 -67 -7 -12 -12 -40 -12 -62 0 -22 -7 -66 -15 -98 -21 -80 -21
-502 0 -588 8 -33 14 -77 15 -98 0 -21 7 -54 15 -74 8 -19 15 -47 15 -62 1
-14 7 -37 15 -51 8 -14 14 -37 15 -51 0 -14 7 -34 15 -45 8 -10 15 -27 15 -37
0 -11 6 -31 13 -45 8 -15 22 -45 32 -67 9 -22 21 -47 26 -55 4 -8 20 -37 34
-65 14 -27 35 -63 45 -80 11 -16 23 -37 27 -45 12 -26 151 -207 201 -261 26
-28 50 -57 55 -64 24 -43 352 -305 432 -345 11 -6 34 -19 50 -30 17 -11 37
-22 45 -26 8 -3 22 -10 30 -15 8 -5 22 -12 30 -15 26 -10 84 -36 112 -51 14
-7 34 -13 45 -13 10 0 27 -7 37 -15 11 -8 31 -15 44 -15 13 0 33 -5 45 -12 12
-6 40 -15 62 -19 22 -5 63 -13 90 -18 151 -31 214 -36 425 -36 212 0 348 11
445 36 22 6 64 14 94 19 29 5 58 13 64 19 6 6 23 11 37 11 14 0 35 7 46 15 10
8 27 15 37 15 11 0 31 6 45 13 15 8 45 22 67 32 22 9 47 21 55 26 8 4 38 20
65 34 28 14 64 35 80 45 17 11 37 23 45 27 49 22 264 197 355 288 89 89 285
330 285 350 0 4 11 21 24 38 14 18 29 43 35 57 6 14 15 33 21 43 5 9 15 25 20
35 6 9 13 24 16 32 4 8 17 38 30 66 27 59 52 127 63 169 4 17 13 40 19 52 7
12 12 33 12 46 0 14 7 41 15 60 8 20 15 52 15 71 0 19 7 61 15 93 21 81 21
544 0 623 -8 30 -15 73 -15 95 0 22 -7 51 -15 65 -8 14 -14 39 -15 55 0 17 -7
43 -15 59 -8 15 -15 38 -15 50 0 12 -7 31 -15 42 -8 10 -15 27 -15 37 0 11 -6
31 -13 45 -8 15 -22 45 -32 67 -9 22 -21 47 -26 55 -4 8 -20 38 -34 65 -44 85
-90 157 -154 240 -64 85 -82 105 -211 234 -128 129 -194 188 -227 204 -13 5
-23 14 -23 19 0 4 -7 8 -15 8 -8 0 -15 5 -15 10 0 6 -10 15 -22 20 -13 6 -36
19 -53 30 -16 11 -39 24 -50 30 -11 6 -33 19 -50 30 -16 11 -37 22 -45 26 -8
3 -22 10 -30 15 -8 5 -22 12 -30 15 -26 10 -84 36 -112 51 -14 7 -35 13 -45
13 -10 0 -27 6 -38 14 -11 7 -33 16 -50 19 -41 8 -111 26 -165 43 -25 8 -61
14 -80 14 -19 0 -67 7 -105 15 -92 19 -444 19 -530 0z m615 -180 c23 -8 59
-15 79 -15 20 -1 47 -7 61 -15 14 -8 39 -15 55 -15 17 0 39 -7 49 -15 11 -8
29 -15 40 -15 12 0 30 -7 40 -15 11 -8 30 -15 42 -15 12 0 27 -7 34 -15 7 -8
18 -15 25 -15 6 0 32 -11 56 -25 41 -23 50 -28 82 -40 17 -7 46 -26 88 -57 20
-16 40 -28 44 -28 7 0 82 -56 100 -75 6 -6 32 -29 60 -51 64 -50 178 -165 230
-229 22 -28 47 -58 56 -67 26 -26 126 -181 165 -256 19 -37 39 -71 45 -77 5
-5 9 -19 9 -31 0 -12 7 -27 15 -34 8 -7 15 -22 15 -34 0 -12 7 -31 15 -42 8
-10 15 -28 15 -39 0 -11 7 -33 15 -49 8 -15 15 -39 15 -52 0 -14 7 -41 15 -61
8 -19 15 -52 15 -72 0 -20 7 -61 15 -91 11 -41 15 -113 15 -275 0 -162 -4
-234 -15 -275 -8 -30 -15 -70 -15 -89 0 -30 -12 -76 -42 -166 -6 -16 -13 -43
-16 -60 -2 -16 -11 -39 -18 -50 -8 -11 -14 -29 -14 -41 0 -12 -7 -27 -15 -34
-8 -7 -15 -23 -15 -35 0 -12 -7 -28 -15 -35 -8 -7 -15 -21 -15 -31 0 -10 -5
-21 -11 -24 -5 -4 -14 -17 -20 -28 -9 -23 -14 -31 -61 -105 -16 -24 -28 -45
-28 -48 0 -28 -252 -306 -376 -414 -41 -36 -151 -120 -158 -120 -3 0 -24 -12
-48 -27 -64 -41 -76 -48 -154 -87 -39 -20 -75 -36 -81 -36 -6 0 -16 -7 -23
-15 -7 -8 -22 -15 -34 -15 -12 0 -31 -7 -42 -15 -10 -8 -30 -15 -44 -15 -14 0
-36 -7 -50 -15 -14 -8 -38 -15 -55 -15 -16 0 -41 -7 -55 -15 -14 -8 -43 -15
-65 -15 -22 0 -67 -7 -100 -15 -42 -10 -122 -14 -269 -15 -201 0 -289 9 -421
41 -22 6 -58 14 -80 18 -22 4 -50 13 -62 19 -12 7 -31 12 -42 12 -10 0 -32 6
-48 14 -15 7 -44 20 -63 29 -63 27 -184 88 -215 108 -16 10 -39 23 -50 29 -44
24 -67 38 -88 56 -12 11 -35 29 -52 42 -76 57 -105 84 -206 185 -59 60 -127
135 -150 168 -24 32 -47 59 -51 59 -5 0 -8 5 -8 11 0 6 -12 28 -27 48 -35 45
-50 70 -62 98 -6 11 -15 24 -20 28 -6 3 -11 14 -11 24 0 10 -7 24 -15 31 -8 7
-15 20 -15 30 0 10 -7 23 -15 30 -8 7 -15 21 -15 30 0 10 -6 31 -14 47 -26 51
-52 131 -85 263 -7 25 -16 81 -21 125 -5 44 -14 104 -20 134 -14 77 -12 272 5
366 8 44 15 99 15 121 0 23 7 58 15 77 8 20 15 51 15 69 1 18 7 44 15 58 8 14
15 36 15 50 0 14 7 34 15 44 8 11 15 28 15 37 0 10 7 30 15 46 8 15 30 62 50
103 20 41 45 89 56 105 10 17 23 39 29 50 16 31 31 53 94 140 66 90 327 354
396 400 25 17 47 33 48 38 2 4 8 7 14 7 6 0 27 13 47 28 20 16 43 32 51 35 8
4 47 25 85 46 39 22 77 40 86 40 9 1 22 8 29 16 7 8 22 15 34 15 12 0 31 7 42
15 10 8 28 15 39 15 11 0 29 6 40 14 11 7 36 16 55 18 19 3 49 10 65 16 109
38 261 51 546 46 168 -3 237 -8 269 -19z"/>
<path d="M3338 3793 c-2 -5 -1 -183 2 -398 3 -214 2 -437 -2 -495 -4 -57 -6
-106 -3 -108 10 -10 90 37 160 96 6 4 17 11 25 15 21 11 47 27 115 72 33 22
69 42 80 45 19 6 20 15 22 180 1 96 2 183 2 193 1 15 12 17 79 17 42 0 83 -4
90 -9 11 -7 11 -26 2 -107 -18 -147 -19 -139 10 -136 13 1 34 11 45 22 12 11
27 20 33 20 7 0 12 5 12 10 0 6 10 15 23 20 12 6 36 19 52 30 17 11 40 25 53
31 12 7 22 15 22 19 0 4 8 10 18 14 9 3 26 11 36 18 11 7 49 32 84 56 35 23
66 42 69 42 3 0 22 13 42 29 61 48 79 54 112 41 16 -7 29 -16 29 -21 0 -5 10
-14 23 -19 23 -10 58 -31 67 -40 9 -9 65 -46 80 -54 19 -9 41 -22 115 -71 84
-56 98 -64 118 -71 9 -3 17 -10 17 -15 0 -5 10 -14 23 -19 12 -6 36 -19 52
-30 17 -11 37 -23 45 -27 8 -4 42 -25 75 -47 34 -23 70 -47 81 -54 10 -7 27
-15 37 -18 9 -4 17 -10 17 -14 0 -4 10 -12 23 -19 12 -6 36 -20 52 -31 17 -11
37 -23 45 -27 8 -3 31 -19 51 -35 20 -15 40 -28 44 -28 5 0 80 -53 112 -80 7
-5 16 -10 20 -10 4 0 7 228 6 507 l-2 508 -1155 3 c-635 1 -1156 -1 -1158 -5z
m2166 -106 c14 -10 30 -26 36 -37 10 -19 15 -237 11 -542 l-1 -96 -31 -7 c-23
-5 -39 -1 -67 18 -42 28 -153 98 -229 146 -28 18 -57 39 -63 47 -7 7 -21 14
-31 14 -10 0 -26 8 -36 18 -10 10 -32 24 -50 31 -18 7 -39 24 -48 37 -8 13
-24 24 -35 24 -11 0 -34 12 -52 28 -38 32 -142 102 -151 102 -3 0 -41 23 -85
51 -54 34 -96 53 -128 58 -55 8 -126 -3 -166 -24 -14 -8 -33 -15 -41 -15 -8 0
-17 -6 -20 -14 -6 -15 -92 -76 -107 -76 -6 0 -32 -16 -59 -35 -26 -19 -54 -35
-61 -35 -8 0 -29 -6 -48 -12 -34 -13 -34 -13 -85 46 -45 50 -59 59 -102 67
-44 8 -55 6 -101 -16 -80 -39 -100 -81 -108 -235 -5 -81 -9 -97 -26 -109 -11
-7 -20 -21 -20 -31 0 -29 -76 -80 -119 -80 -39 0 -42 27 -39 345 3 276 5 306
21 322 16 16 44 19 245 23 125 3 574 5 999 4 700 -1 774 -2 797 -17z"/>
<path d="M4427 3205 c-25 -19 -48 -35 -51 -35 -3 0 -33 -19 -68 -43 -35 -24
-70 -46 -78 -50 -21 -11 -42 -24 -140 -88 -147 -97 -206 -134 -230 -145 -8 -4
-31 -20 -51 -36 -20 -15 -40 -28 -43 -28 -3 0 -34 -19 -69 -43 -34 -24 -69
-46 -77 -50 -8 -4 -28 -16 -45 -27 -16 -11 -37 -23 -45 -27 -8 -3 -31 -18 -50
-32 -44 -33 -70 -49 -95 -60 -40 -17 -42 -30 -40 -236 1 -110 -2 -205 -6 -210
-4 -6 -9 -109 -10 -229 -1 -171 1 -220 11 -226 7 -5 56 -6 109 -3 82 5 101 9
130 31 46 34 66 85 50 126 -7 17 -21 41 -32 54 l-21 22 22 30 c27 37 29 106 4
136 -31 37 -79 55 -140 54 -31 -1 -65 -1 -74 -1 -36 2 -16 27 52 66 38 22 70
43 70 48 0 4 6 7 14 7 8 0 21 6 28 13 7 7 20 16 28 20 8 4 29 16 45 27 17 11
37 23 45 27 8 3 31 18 50 33 19 15 42 30 50 33 8 4 29 16 45 27 17 11 40 24
53 30 12 5 22 14 22 19 0 5 8 12 18 15 19 7 33 15 117 71 88 58 98 64 118 71
9 3 17 10 17 15 0 5 10 14 23 19 12 6 36 19 52 30 17 11 39 24 50 30 29 15 56
32 96 63 20 15 40 27 44 27 4 0 18 9 32 20 14 11 33 20 43 20 9 0 25 -9 35
-20 10 -11 22 -20 28 -20 5 0 26 -13 46 -28 20 -16 43 -32 51 -36 19 -9 40
-22 115 -71 71 -47 95 -62 115 -71 8 -4 17 -10 20 -13 7 -9 63 -46 80 -55 19
-9 41 -22 115 -71 84 -56 98 -64 118 -71 9 -3 17 -10 17 -15 0 -5 10 -14 23
-19 12 -6 36 -19 52 -30 17 -10 40 -25 51 -32 200 -121 264 -162 264 -170 0
-5 5 -8 11 -6 7 2 11 69 11 206 0 201 0 203 -24 221 -12 10 -30 21 -38 25 -22
10 -47 26 -115 72 -34 22 -67 43 -75 48 -20 9 -43 24 -115 71 -71 47 -95 62
-115 71 -8 4 -17 10 -20 13 -7 9 -63 46 -80 55 -19 9 -41 22 -115 71 -84 56
-98 64 -117 71 -10 3 -18 10 -18 15 0 5 -10 14 -22 19 -13 6 -36 19 -53 30
-16 11 -37 23 -45 27 -8 3 -31 19 -51 35 -20 15 -40 28 -44 28 -3 0 -27 16
-52 35 -25 19 -54 35 -63 35 -9 0 -38 -16 -63 -35z m115 -114 c13 -5 44 -25
69 -44 26 -19 57 -38 69 -42 13 -4 51 -26 86 -49 35 -22 111 -72 170 -111 59
-38 119 -78 133 -87 14 -10 35 -22 46 -27 11 -5 44 -25 73 -44 28 -19 72 -45
97 -58 25 -13 48 -31 50 -40 3 -10 21 -20 40 -23 19 -4 39 -16 45 -26 6 -11
19 -20 28 -20 19 0 72 -51 91 -87 6 -12 11 -47 11 -77 0 -52 -2 -56 -24 -56
-27 0 -66 16 -111 44 -82 52 -111 72 -120 82 -5 6 -25 17 -43 24 -18 7 -37 21
-43 31 -5 10 -27 23 -48 29 -21 6 -42 17 -45 25 -3 8 -11 15 -19 15 -7 0 -36
16 -63 35 -27 19 -54 35 -61 35 -7 0 -22 13 -34 29 -12 16 -33 32 -46 36 -13
3 -77 40 -141 83 -147 96 -171 109 -231 117 -41 5 -60 1 -124 -26 -43 -17 -77
-35 -77 -39 0 -8 -147 -98 -222 -136 -23 -12 -49 -30 -57 -40 -9 -11 -35 -28
-58 -38 -23 -10 -50 -27 -59 -37 -10 -11 -22 -19 -29 -19 -7 0 -20 -9 -30 -20
-10 -11 -23 -20 -30 -20 -6 0 -36 -17 -67 -37 -30 -21 -62 -42 -70 -48 -8 -5
-42 -28 -74 -51 -77 -53 -147 -86 -168 -78 -33 13 -13 145 28 183 18 17 162
114 243 163 15 10 48 31 73 48 25 16 63 39 85 51 22 12 49 30 60 40 11 10 36
25 55 34 19 9 62 36 95 60 33 25 71 49 84 55 13 6 37 22 53 35 16 14 36 25 44
25 8 0 23 9 35 21 11 11 46 36 77 54 59 35 108 44 154 26z m-1028 -1087 c19
-7 22 -64 4 -82 -7 -7 -34 -12 -60 -12 l-48 0 0 43 c0 24 3 47 7 50 8 9 76 9
97 1z m-10 -178 c76 -32 44 -116 -46 -118 -36 -1 -48 14 -48 68 0 63 27 78 94
50z"/>
<path d="M4222 2345 l3 -195 266 -2 c147 0 272 2 278 6 6 4 8 18 5 32 -3 13
-7 97 -8 187 l-1 162 -273 3 -272 2 2 -195z m359 116 c47 -10 92 -45 101 -79
9 -32 -1 -112 -16 -131 -19 -24 -89 -51 -133 -51 l-42 0 -7 46 c-8 54 -1 204
10 223 5 8 17 10 30 6 11 -4 37 -10 57 -14z m-131 -46 c8 -10 11 -37 8 -81 -5
-75 -27 -104 -78 -104 -37 0 -50 19 -57 83 -7 67 1 104 25 110 39 10 90 6 102
-8z"/>
<path d="M3805 1870 c1 -152 4 -223 12 -228 6 -4 71 -7 145 -7 l133 0 3 28 c6
50 -11 58 -112 55 l-91 -3 0 55 0 55 87 -2 87 -3 7 34 c3 19 3 39 -1 45 -3 7
-43 11 -96 11 l-90 0 3 48 3 47 100 0 100 0 0 40 0 40 -145 3 -145 3 0 -221z"/>
<path d="M4265 2081 c-11 -18 -9 -431 2 -442 6 -6 26 -9 44 -7 l34 3 -4 141
c-2 88 0 144 7 147 5 4 32 -26 59 -66 169 -248 152 -228 192 -225 l36 3 0 225
0 225 -43 3 -44 3 3 -140 c2 -87 -1 -145 -7 -151 -7 -7 -23 9 -49 52 -21 35
-59 91 -84 125 -25 34 -54 74 -64 88 -18 25 -69 35 -82 16z"/>
<path d="M4940 2067 c0 -13 -7 -32 -15 -43 -8 -10 -15 -27 -15 -36 0 -9 -7
-30 -15 -47 -8 -17 -22 -45 -30 -62 -8 -17 -15 -38 -15 -47 0 -9 -7 -26 -15
-36 -8 -11 -15 -27 -15 -36 0 -9 -5 -21 -12 -28 -20 -20 -36 -80 -25 -91 26
-26 97 -4 97 29 0 11 8 35 17 55 l17 35 72 0 c64 0 75 -3 88 -22 9 -12 16 -32
16 -43 0 -36 28 -65 63 -65 65 0 64 9 -19 173 -8 16 -14 35 -14 42 0 7 -7 27
-15 44 -8 17 -22 45 -30 62 -8 17 -15 36 -15 42 0 7 -8 31 -17 54 -17 41 -20
43 -60 43 -38 0 -43 -3 -43 -23z m75 -151 c9 -18 17 -46 18 -62 2 -28 0 -29
-45 -32 -46 -3 -48 -2 -48 23 0 14 4 33 10 43 5 9 14 30 20 45 12 33 24 29 45
-17z"/>
<path d="M5387 2049 c-111 -97 -116 -259 -10 -364 45 -45 75 -55 169 -55 88 0
114 9 114 39 -1 42 -24 65 -57 56 -107 -27 -162 -11 -194 58 -10 23 -19 54
-19 69 0 35 28 106 52 130 24 24 93 33 142 19 47 -12 76 0 76 32 0 44 -32 57
-134 57 l-93 0 -46 -41z"/>
<path d="M4317 1554 c-4 -4 -7 -18 -7 -31 0 -25 -10 -29 -28 -11 -9 9 -18 9
-37 0 -23 -11 -25 -17 -25 -75 0 -69 6 -83 26 -66 8 7 11 22 7 40 -6 33 10 59
38 59 20 0 22 -5 19 -63 l-2 -38 44 0 c24 0 60 0 81 -1 40 -1 57 12 57 45 0 9
-7 17 -15 17 -17 0 -21 36 -4 42 20 7 -13 48 -38 48 -12 0 -27 -9 -33 -20 -12
-22 -45 -27 -56 -8 -4 6 0 16 9 23 18 13 23 35 8 35 -5 0 -16 2 -23 5 -8 3
-17 2 -21 -1z m77 -109 c3 -8 12 -15 21 -15 23 0 18 -19 -7 -29 -29 -11 -48 4
-48 35 0 27 24 33 34 9z"/>
<path d="M4841 1547 c-6 -8 -8 -17 -4 -20 3 -4 5 -38 4 -75 -1 -50 2 -72 13
-81 8 -7 17 -8 19 -4 5 7 10 139 8 181 -1 16 -26 15 -40 -1z"/>
<path d="M5119 1551 c-2 -6 -3 -49 -1 -96 3 -73 6 -86 20 -83 23 4 24 181 0
186 -9 2 -18 -2 -19 -7z"/>
<path d="M5509 1543 c-8 -10 -26 -24 -41 -30 -58 -26 -70 -85 -27 -132 25 -27
84 -29 98 -3 13 25 9 158 -5 172 -9 9 -15 7 -25 -7z m-3 -119 c-8 -21 -50 -14
-54 9 -5 23 39 41 51 20 5 -8 6 -21 3 -29z"/>
<path d="M3447 1543 c-4 -3 -7 -44 -7 -89 l0 -83 34 -6 c18 -4 44 -5 57 -3 30
4 39 38 11 38 -27 0 -52 10 -52 21 0 5 6 9 13 9 6 0 18 4 26 9 12 8 12 13 -3
35 -9 14 -14 27 -11 27 3 1 8 2 13 3 17 3 32 18 32 32 0 10 -14 14 -53 14 -30
0 -57 -3 -60 -7z"/>
<path d="M3736 1541 c-3 -4 -3 -45 1 -90 6 -75 8 -82 30 -87 37 -10 53 13 26
36 -23 18 -32 60 -13 60 22 0 21 30 -1 59 -23 32 -34 37 -43 22z"/>
<path d="M4700 1465 c0 -94 7 -105 73 -105 63 0 69 43 7 52 -23 3 -25 7 -23
51 3 57 -10 87 -37 87 -18 0 -20 -7 -20 -85z"/>
<path d="M5185 1473 c3 -82 10 -101 41 -109 46 -12 62 25 19 44 -14 6 -25 19
-25 27 0 9 11 20 25 25 14 5 25 13 25 17 0 14 -54 63 -71 63 -14 0 -16 -10
-14 -67z"/>
<path d="M3608 1508 c-22 -18 -31 -110 -13 -134 16 -22 22 -11 27 46 2 27 7
35 23 35 17 0 20 -7 20 -40 0 -34 3 -40 23 -43 20 -3 22 1 22 39 0 80 -56 133
-102 97z"/>
<path d="M3852 1502 c-20 -15 -23 -26 -20 -67 2 -41 7 -52 30 -64 20 -11 34
-13 54 -6 37 13 33 28 -11 40 -42 12 -36 25 11 25 46 0 49 13 13 54 -35 41
-45 43 -77 18z"/>
<path d="M3987 1502 c-12 -13 -17 -37 -17 -75 0 -50 2 -57 20 -57 17 0 20 7
20 44 0 30 5 46 15 50 8 3 15 17 15 31 0 30 -29 34 -53 7z"/>
<path d="M4086 1505 c-18 -13 -22 -62 -17 -177 1 -27 30 -21 37 7 3 14 13 25
23 25 37 0 61 29 61 73 0 68 -57 108 -104 72z m68 -54 c11 -18 -6 -41 -30 -41
-17 0 -24 6 -24 18 0 10 3 22 7 25 9 10 41 8 47 -2z"/>
<path d="M4539 1510 c-31 -18 -41 -62 -24 -103 15 -37 43 -53 82 -45 30 6 23
42 -9 46 -16 2 -28 8 -28 13 0 6 8 8 19 4 26 -8 51 4 51 25 0 19 -46 70 -64
70 -6 0 -18 -5 -27 -10z"/>
<path d="M4925 1500 c-12 -13 -15 -33 -13 -74 4 -68 21 -78 28 -16 7 61 34 63
38 2 3 -38 6 -43 25 -40 18 2 22 9 22 43 0 29 4 40 17 43 14 3 17 -6 20 -45 4
-65 22 -56 26 13 4 74 -12 89 -90 90 -43 1 -61 -3 -73 -16z"/>
<path d="M5319 1510 c-29 -17 -43 -66 -29 -100 19 -47 74 -67 99 -37 13 16 -4
37 -31 37 -10 0 -18 5 -18 11 0 6 8 8 19 4 40 -12 48 36 13 78 -17 19 -29 21
-53 7z"/>
<path d="M4220 579 c-238 -10 -421 -34 -457 -62 -7 -5 -13 -20 -13 -33 0 -34
31 -38 162 -24 166 19 806 24 1018 8 96 -7 202 -12 235 -13 l60 0 3 32 c3 30
0 33 -36 43 -91 24 -251 41 -467 50 -250 10 -248 10 -505 -1z"/>
</g>
</svg>
